<svg xmlns="http://www.w3.org/2000/svg" xmlns:xlink="http://www.w3.org/1999/xlink" width="7in" height="4in" viewBox="0 0 504 288">
  <defs>
    <linearGradient id="a" x1="322.12" y1="-153.32" x2="204.2" y2="346.71" gradientUnits="userSpaceOnUse">
      <stop offset="0" stop-color="#8d46f4"/>
      <stop offset="1" stop-color="#60006a"/>
    </linearGradient>
    <clipPath id="c">
      <rect width="504" height="288" style="fill: url(#a)"/>
    </clipPath>
  </defs>
  <title>BG2</title>
  <g style="isolation: isolate">
    <g>
      <rect width="504" height="288" style="fill: url(#a)"/>
      <g style="clip-path: url(#c)">
        <path d="M349.56-260.52c-55.7,25.72-60.68,80.78-111.37,53-15.14-8.29-26.46-17.68-41-20.75-41.48-8.76-53.72,51-91.84,45.79C81.06-185.83,44.51-196,14.3-161.33-1.23-143.52-1.93-122.56-3.63-97-7.18-43.68-51-27.85-65.43,29.66c-12.29,49.05,11.83,87.46,53,94.73,47.4,8.36,81.09-19.78,132.55-44.58,45.34-21.85,74.61,12.08,128,22.59,36.86,7.25,68.13-11.73,90.14-42,28.78-39.56,31.62-74.29,36.46-115.77,5.34-45.82,29-66.55,47.65-89.35C480-215.2,409.61-288.25,349.56-260.52Z" style="fill: #636363;mix-blend-mode: overlay"/>
        <path d="M488.17,168.08c-55.7,25.72-60.68,80.78-111.37,53-15.14-8.29-26.46-17.68-41-20.75-41.47-8.76-53.72,51-91.83,45.79-24.31-3.35-60.86-13.5-91.07,21.15C137.38,285.08,136.69,306,135,331.58c-3.55,53.33-47.4,69.17-61.8,126.68C60.9,507.31,85,545.72,126.22,553c47.4,8.35,81.08-19.78,132.55-44.58,45.33-21.85,74.61,12.08,128,22.59,36.85,7.25,68.12-11.74,90.14-42,28.77-39.56,31.62-74.29,36.45-115.77,5.35-45.82,29-66.55,47.66-89.35C618.59,213.4,548.22,140.35,488.17,168.08Z" style="fill: #636363;mix-blend-mode: overlay"/>
        <path d="M392.08,248.6c-35.15,3.34-48.35,32.28-70.57,7.53-6.64-7.39-11-14.65-18.3-19.09-20.85-12.67-38.9,17.47-58.6,7.35-12.56-6.46-30.47-18.94-53.48-5.89-11.83,6.71-16.2,17.95-22,31.5-12.1,28.28-38.93,28.51-57.72,57-16,24.29-10.26,49.75,10.73,61.55,24.14,13.58,47.79,4.73,80.47,1.08,28.78-3.21,38.21,20.79,65.2,36.68,18.62,11,39.22,6.63,56.95-5.6,23.17-16,31.34-34.31,41.88-55.91,11.64-23.86,28.45-30.6,42.91-39.42C454.25,298.08,430,245,392.08,248.6Z" style="fill: #ffe8cc;mix-blend-mode: overlay"/>
        <path d="M333.12-98.36C298-95,284.77-66.08,262.55-90.83c-6.64-7.39-11-14.65-18.3-19.09-20.85-12.67-38.91,17.47-58.6,7.34-12.56-6.45-30.47-18.93-53.48-5.88-11.83,6.71-16.2,17.95-22,31.5C98.07-48.68,71.24-48.45,52.45-20c-16,24.29-10.26,49.75,10.73,61.55,24.14,13.58,47.79,4.73,80.47,1.08,28.78-3.21,38.21,20.79,65.19,36.68,18.63,11,39.23,6.63,57-5.61,23.17-16,31.34-34.3,41.88-55.9C319.32-6,336.13-12.77,350.59-21.59,395.29-48.88,371-102,333.12-98.36Z" style="fill: #ffe8cc;mix-blend-mode: overlay"/>
        <g style="mix-blend-mode: overlay">
          <path d="M-31,130.86l-.48-.11A82.09,82.09,0,0,1,.14,83.39a82.1,82.1,0,0,1,55-14.84c9.55.92,18.94,3.55,28,6.09,5.42,1.52,11,3.09,16.61,4.28,18.45,3.94,33.31,2.31,44.17-4.85,5.08-3.34,9.3-7.95,13.39-12.41,4.76-5.2,9.69-10.58,16-14,12.66-6.78,27.62-4.3,42.09-1.9l3.27.54c26.18,4.25,48.5,4,68.26-.63C311,40,331.21,27.32,343.81,10c14.08-19.37,17.74-44.85,9.32-64.91l.46-.19c8.49,20.22,4.81,45.89-9.37,65.39-12.68,17.44-33,30.19-57.2,35.92-19.82,4.69-42.21,4.9-68.45.64l-3.27-.53c-14.39-2.39-29.27-4.86-41.77,1.84C167.3,51.48,162.4,56.83,157.66,62c-4.1,4.48-8.35,9.12-13.47,12.49-11,7.23-26,8.89-44.56,4.92C94,78.22,88.42,76.65,83,75.13,73.93,72.59,64.56,70,55.06,69.05A81.55,81.55,0,0,0,.43,83.8,81.63,81.63,0,0,0-31,130.86Z" style="fill: #fff"/>
        </g>
        <g style="mix-blend-mode: overlay">
          <path d="M168.54,326.84l-.46-.2a137.63,137.63,0,0,1,153.16-79.17c5,1,10.23,2.34,15.25,3.62,17.38,4.43,35.35,9,51.7,2.41,10.69-4.31,19.06-12.93,27.15-21.26,8.76-9,17.82-18.34,29.8-22.15,9.58-3.05,19.83-2.16,29.74-1.3,5.06.44,10.29.89,15.38.82,26.11-.36,52-16,64.39-39s11.3-53.22-2.75-75.25l.43-.26a75.14,75.14,0,0,1-62.06,115c-5.12.07-10.36-.38-15.43-.82-9.86-.86-20.06-1.74-29.55,1.27-11.86,3.78-20.88,13.06-29.59,22-8.13,8.37-16.54,17-27.33,21.38-16.5,6.65-34.55,2-52-2.4-5-1.27-10.2-2.59-15.23-3.61a137.15,137.15,0,0,0-152.6,78.88Z" style="fill: #fff"/>
        </g>
        <g style="mix-blend-mode: overlay">
          <path d="M92.41,123.74A98.26,98.26,0,0,1,22.46,94.79,98.26,98.26,0,0,1-6.49,24.84a98.22,98.22,0,0,1,29-69.94,99,99,0,0,1,139.9,0,98.26,98.26,0,0,1,28.95,69.94,98.3,98.3,0,0,1-28.95,70A98.26,98.26,0,0,1,92.41,123.74Zm0-197.29a98.4,98.4,0,1,0,98.4,98.39A98.51,98.51,0,0,0,92.41-73.55Z" style="fill: #fff"/>
          <path d="M92.41,111.41A86.57,86.57,0,1,1,179,24.84,86.67,86.67,0,0,1,92.41,111.41Zm0-172.63a86.07,86.07,0,1,0,86.06,86.06A86.16,86.16,0,0,0,92.41-61.22Z" style="fill: #fff"/>
          <path d="M92.41,99.08a74.24,74.24,0,1,1,74.23-74.24A74.32,74.32,0,0,1,92.41,99.08Zm0-148a73.74,73.74,0,1,0,73.73,73.73A73.81,73.81,0,0,0,92.41-48.89Z" style="fill: #fff"/>
          <path d="M92.41,86.75a61.91,61.91,0,1,1,61.9-61.91A62,62,0,0,1,92.41,86.75Zm0-123.31a61.41,61.41,0,1,0,61.4,61.4A61.46,61.46,0,0,0,92.41-36.56Z" style="fill: #fff"/>
          <path d="M92.41,74.42A49.58,49.58,0,1,1,142,24.84,49.63,49.63,0,0,1,92.41,74.42Zm0-98.65a49.08,49.08,0,1,0,49.07,49.07A49.12,49.12,0,0,0,92.41-24.23Z" style="fill: #fff"/>
        </g>
        <g style="mix-blend-mode: overlay">
          <path d="M295.18,425.63a98.84,98.84,0,1,1,69.95-28.95A98.25,98.25,0,0,1,295.18,425.63Zm0-197.29a98.4,98.4,0,1,0,98.4,98.4A98.51,98.51,0,0,0,295.18,228.34Z" style="fill: #fff"/>
          <path d="M295.18,413.3a86.57,86.57,0,1,1,86.57-86.56A86.66,86.66,0,0,1,295.18,413.3Zm0-172.63a86.07,86.07,0,1,0,86.07,86.07A86.16,86.16,0,0,0,295.18,240.67Z" style="fill: #fff"/>
          <path d="M295.18,401a74.24,74.24,0,1,1,74.24-74.23A74.31,74.31,0,0,1,295.18,401Zm0-148a73.74,73.74,0,1,0,73.74,73.74A73.82,73.82,0,0,0,295.18,253Z" style="fill: #fff"/>
          <path d="M295.18,388.64a61.91,61.91,0,1,1,61.91-61.9A62,62,0,0,1,295.18,388.64Zm0-123.31a61.41,61.41,0,1,0,61.41,61.41A61.48,61.48,0,0,0,295.18,265.33Z" style="fill: #fff"/>
          <path d="M295.18,376.31a49.58,49.58,0,1,1,49.58-49.57A49.63,49.63,0,0,1,295.18,376.31Zm0-98.65a49.08,49.08,0,1,0,49.08,49.08A49.13,49.13,0,0,0,295.18,277.66Z" style="fill: #fff"/>
        </g>
      </g>
    </g>
  </g>
</svg>
