<svg xmlns="http://www.w3.org/2000/svg" xmlns:xlink="http://www.w3.org/1999/xlink" width="500" height="500" viewBox="0 0 500 500">
  <defs>
    <linearGradient id="a" x1="45.06" y1="473.03" x2="543.57" y2="473.03" gradientUnits="userSpaceOnUse">
      <stop offset="0" stop-color="#8e46f5"/>
      <stop offset="0.98" stop-color="#750094"/>
    </linearGradient>
    <linearGradient id="b" x1="352.55" y1="209.67" x2="404.75" y2="363.87" xlink:href="#a"/>
  </defs>
  <title>Untitled-1</title>
  <path d="M491.61,384.13c-51.8-3.43-77.78,35.46-104.2-5.7-7.89-12.29-12.51-23.85-22.06-32-27.27-23.3-60.58,16.18-86.77-3.16-16.7-12.32-39.76-34.65-76.23-21.14-18.75,6.95-27.74,22.24-39.35,40.53-24.23,38.19-63.22,32.2-97.2,69.1-29,31.48-26.61,69.78,1.06,91.86,31.84,25.4,68.25,18.13,116.53,20.53,42.53,2.12,50.55,39.18,86,68.6,24.45,20.31,55.37,18.86,84,5.29,37.39-17.75,53.56-42.4,74-71.26,22.52-31.88,48.51-37.7,71.58-47.1C570.17,470.6,547.45,387.84,491.61,384.13Z" style="fill: url(#a)"/>
  <path d="M531.76,172.83c-47.2,21.79-51.42,68.45-94.37,44.91-12.83-7-22.42-15-34.73-17.58-35.15-7.43-45.53,43.25-77.83,38.8-20.59-2.84-51.57-11.44-77.17,17.92-13.16,15.09-13.74,32.85-15.19,54.5-3,45.19-40.17,58.61-52.37,107.34-10.41,41.57,10,74.12,44.94,80.27,40.17,7.09,68.71-16.75,112.33-37.77,38.41-18.51,63.22,10.23,108.47,19.14,31.23,6.15,57.73-9.94,76.38-35.59,24.39-33.52,26.8-62.95,30.9-98.1,4.53-38.83,24.59-56.39,40.38-75.71C642.28,211.23,582.65,149.33,531.76,172.83Z" style="fill: url(#b)"/>
</svg>
